<svg version="1.2" xmlns="http://www.w3.org/2000/svg" viewBox="0 0 87 100" width="87" height="100">
	<title>Logo</title>
	<style>
		.s0 { fill: #babdc4 } 
		.s1 { fill: #f49322 } 
		.s2 { fill: #1c97c2 } 
	</style>
	<g id="Logo">
		<path id="Shape 6" fill-rule="evenodd" class="s0" d="m84.3 22.6v14.2h-14.2v-14.2z"/>
		<path id="Shape 5" fill-rule="evenodd" class="s1" d="m39.2 32.1v7.7h-7.7v-7.7z"/>
		<path id="Shape 4" fill-rule="evenodd" class="s2" d="m70.1 62.3v7.8h-7.8v-7.8z"/>
		<path id="Shape 2" fill-rule="evenodd" class="s1" d="m0.1 55.6c0 0 36.7 23.6 69.5-10.8 0.1-0.1 17.3 0.2 17.3 0.2l-0.3 29.7-43.9 25.3-42.7-25.7 0.2-6.8c0 0 31.5 27.6 64 6.3 0.8-0.5 9.9 0.3 9.9 0.3l-0.1-15.7-15.6-0.2c0 0 0.4 7.4-0.2 7.8-27 19.7-58.2-1.9-58.2-1.9z"/>
		<path id="Shape 2 copy" fill-rule="evenodd" class="s1" d="m0.1 55.6c0 0 36.7 23.6 69.5-10.8 0.1-0.1 17.3 0.2 17.3 0.2l-0.3 29.7-43.9 25.3-42.7-25.7 0.2-6.8c0 0 31.5 27.6 64 6.3 0.8-0.5 9.9 0.3 9.9 0.3l-0.1-15.7-15.6-0.2c0 0 0.4 7.4-0.2 7.8-27 19.7-58.2-1.9-58.2-1.9z"/>
		<path id="Shape 3" fill-rule="evenodd" class="s2" d="m0 23.7v19c0 0 19.7 4.4 27.3-7.1v-7.1h16.6v15.4h-10.7c0 0-12.6 10.4-33.2 2.4v4.8c0 0 35 15.7 61.7-15.5v-21.4h6l-23.8-14.2z"/>
	</g>
</svg>